<svg width="450" height="151" viewBox="0 0 450 151" fill="none" xmlns="http://www.w3.org/2000/svg">
<rect y="7.32421" width="218" height="139.16" fill="black"/>
<rect x="6.8125" y="14.6484" width="204.375" height="124.512" fill="#B2B2B2"/>
<g filter="url(#filter0_d_9_4)">
<ellipse cx="109" cy="76.9042" rx="51.0938" ry="54.9316" fill="black"/>
<path d="M159.594 76.9042C159.594 107.001 136.909 131.336 109 131.336C81.0913 131.336 58.4062 107.001 58.4062 76.9042C58.4062 46.8078 81.0913 22.4726 109 22.4726C136.909 22.4726 159.594 46.8078 159.594 76.9042Z" stroke="black"/>
</g>
<ellipse cx="109" cy="76.9042" rx="44.2813" ry="47.6074" fill="#D9D9D9"/>
<rect x="20.4376" width="20.4375" height="10.9863" fill="black"/>
<path d="M239.55 24.16L246.77 41.83L253.952 24.16H258.93V50H254.56V40.12L255.13 31.076L248.708 46.96H244.642L238.372 31.038L238.942 40.12V50H234.572V24.16H239.55ZM280.1 50.19C278.808 50.19 277.769 49.924 276.984 49.392C276.224 48.86 275.667 48.2013 275.312 47.416C274.223 48.4293 273.171 49.1767 272.158 49.658C271.145 50.1393 270.055 50.38 268.89 50.38C267.193 50.38 265.939 49.8353 265.128 48.746C264.343 47.6567 263.95 46.276 263.95 44.604C263.95 43.4893 264.153 42.514 264.558 41.678C264.989 40.8167 265.685 40.1453 266.648 39.664C267.611 39.1827 268.928 38.942 270.6 38.942C271.259 38.942 271.943 38.9927 272.652 39.094C273.361 39.17 274.071 39.2713 274.78 39.398V37.156C274.78 36.092 274.489 35.37 273.906 34.99C273.323 34.5847 272.538 34.382 271.55 34.382C270.79 34.382 269.954 34.4833 269.042 34.686C268.155 34.8887 267.193 35.2053 266.154 35.636L264.9 31.912C267.459 30.8733 269.777 30.354 271.854 30.354C273.729 30.354 275.173 30.6707 276.186 31.304C277.225 31.9373 277.947 32.7733 278.352 33.812C278.757 34.8507 278.96 35.9653 278.96 37.156V44.566C278.96 44.946 279.061 45.3133 279.264 45.668C279.492 45.9973 279.923 46.162 280.556 46.162H280.974V50.19H280.1ZM268.168 44.528C268.168 45.212 268.32 45.7567 268.624 46.162C268.928 46.542 269.371 46.732 269.954 46.732C270.537 46.732 271.195 46.58 271.93 46.276C272.665 45.972 273.615 45.2627 274.78 44.148V42.514C273.463 42.286 272.171 42.172 270.904 42.172C269.916 42.172 269.207 42.3747 268.776 42.78C268.371 43.1853 268.168 43.768 268.168 44.528ZM295.636 34.724C294.445 34.724 293.305 34.914 292.216 35.294C291.152 35.6487 290.126 36.2313 289.138 37.042V50H284.768V30.734H288.91V33.698C290.202 32.482 291.354 31.6207 292.368 31.114C293.381 30.6073 294.47 30.354 295.636 30.354V34.724ZM310.977 50L306.227 41.982C305.467 42.742 304.669 43.502 303.833 44.262V50H299.463V21.88H303.833V39.436C305.277 37.9667 306.518 36.5607 307.557 35.218C308.621 33.85 309.596 32.3553 310.483 30.734H315.499C314.663 32.254 313.751 33.698 312.763 35.066C311.775 36.434 310.686 37.8147 309.495 39.208L316.259 50H310.977ZM251.672 94.328C251.039 94.708 249.987 95.1513 248.518 95.658C247.074 96.1393 245.377 96.38 243.426 96.38C241.222 96.38 239.373 95.924 237.878 95.012C236.409 94.1 235.294 92.846 234.534 91.25C233.774 89.654 233.394 87.83 233.394 85.778V80.344C233.394 78.2413 233.774 76.4047 234.534 74.834C235.294 73.238 236.421 71.9967 237.916 71.11C239.436 70.2233 241.336 69.78 243.616 69.78C244.731 69.78 245.883 69.9067 247.074 70.16C248.265 70.388 249.569 70.8187 250.988 71.452L249.582 75.442C248.341 74.9607 247.264 74.6187 246.352 74.416C245.465 74.188 244.579 74.074 243.692 74.074C241.716 74.074 240.285 74.644 239.398 75.784C238.511 76.8987 238.068 78.4187 238.068 80.344V85.778C238.068 87.602 238.511 89.0967 239.398 90.262C240.31 91.4273 241.729 92.01 243.654 92.01C244.237 92.01 244.87 91.9593 245.554 91.858C246.238 91.7567 246.897 91.6173 247.53 91.44V85.778H243.35V81.788H251.672V94.328ZM267.766 80.724C266.576 80.724 265.436 80.914 264.346 81.294C263.282 81.6487 262.256 82.2313 261.268 83.042V96H256.898V76.734H261.04V79.698C262.332 78.482 263.485 77.6207 264.498 77.114C265.512 76.6073 266.601 76.354 267.766 76.354V80.724ZM287.364 85.208V87.488C287.364 90.1733 286.629 92.3267 285.16 93.948C283.69 95.5693 281.613 96.38 278.928 96.38C276.242 96.38 274.165 95.5693 272.696 93.948C271.226 92.3267 270.492 90.1733 270.492 87.488V85.208C270.492 82.5227 271.214 80.382 272.658 78.786C274.127 77.1647 276.217 76.354 278.928 76.354C281.638 76.354 283.716 77.1647 285.16 78.786C286.629 80.382 287.364 82.5227 287.364 85.208ZM282.88 85.208C282.88 83.6627 282.538 82.4593 281.854 81.598C281.17 80.7113 280.194 80.268 278.928 80.268C277.661 80.268 276.686 80.7113 276.002 81.598C275.318 82.4593 274.976 83.6627 274.976 85.208V87.488C274.976 89.0333 275.318 90.2493 276.002 91.136C276.686 92.0227 277.661 92.466 278.928 92.466C280.194 92.466 281.17 92.0227 281.854 91.136C282.538 90.2493 282.88 89.0333 282.88 87.488V85.208ZM308.034 85.208V87.488C308.034 90.1733 307.299 92.3267 305.83 93.948C304.36 95.5693 302.283 96.38 299.598 96.38C296.912 96.38 294.835 95.5693 293.366 93.948C291.896 92.3267 291.162 90.1733 291.162 87.488V85.208C291.162 82.5227 291.884 80.382 293.328 78.786C294.797 77.1647 296.887 76.354 299.598 76.354C302.308 76.354 304.386 77.1647 305.83 78.786C307.299 80.382 308.034 82.5227 308.034 85.208ZM303.55 85.208C303.55 83.6627 303.208 82.4593 302.524 81.598C301.84 80.7113 300.864 80.268 299.598 80.268C298.331 80.268 297.356 80.7113 296.672 81.598C295.988 82.4593 295.646 83.6627 295.646 85.208V87.488C295.646 89.0333 295.988 90.2493 296.672 91.136C297.356 92.0227 298.331 92.466 299.598 92.466C300.864 92.466 301.84 92.0227 302.524 91.136C303.208 90.2493 303.55 89.0333 303.55 87.488V85.208ZM317.304 82.662V96H312.934V76.734H317.076V79.28C318.266 78.2413 319.368 77.494 320.382 77.038C321.395 76.582 322.434 76.354 323.498 76.354C325.854 76.354 327.462 77.3927 328.324 79.47C329.59 78.3553 330.768 77.5573 331.858 77.076C332.947 76.5947 334.049 76.354 335.164 76.354C336.937 76.354 338.292 76.9493 339.23 78.14C340.167 79.3053 340.636 80.952 340.636 83.08V96H336.266V83.612C336.266 81.484 335.455 80.42 333.834 80.42C333.2 80.42 332.504 80.572 331.744 80.876C330.984 81.18 330.059 81.7753 328.97 82.662V96H324.6V83.612C324.6 81.484 323.789 80.42 322.168 80.42C321.534 80.42 320.838 80.572 320.078 80.876C319.318 81.18 318.393 81.7753 317.304 82.662ZM234.572 142V116.16H243.084C245.795 116.16 247.821 116.844 249.164 118.212C250.532 119.58 251.216 121.404 251.216 123.684V125.698C251.216 127.978 250.532 129.815 249.164 131.208C247.821 132.576 245.795 133.26 243.084 133.26H239.132V142H234.572ZM243.084 120.53H239.132V128.89H243.084C244.199 128.89 245.047 128.611 245.63 128.054C246.238 127.497 246.542 126.711 246.542 125.698V123.684C246.542 122.696 246.238 121.923 245.63 121.366C245.047 120.809 244.199 120.53 243.084 120.53ZM265.246 126.42C264.613 126.42 263.891 126.572 263.08 126.876C262.27 127.18 261.307 127.775 260.192 128.662V142H255.822V113.88H260.192V125.128C261.358 124.14 262.447 123.431 263.46 123C264.474 122.569 265.512 122.354 266.576 122.354C268.426 122.354 269.832 122.949 270.794 124.14C271.757 125.305 272.238 126.952 272.238 129.08V142H267.868V129.612C267.868 127.484 266.994 126.42 265.246 126.42ZM293.784 131.208V133.488C293.784 136.173 293.049 138.327 291.58 139.948C290.11 141.569 288.033 142.38 285.348 142.38C282.662 142.38 280.585 141.569 279.116 139.948C277.646 138.327 276.912 136.173 276.912 133.488V131.208C276.912 128.523 277.634 126.382 279.078 124.786C280.547 123.165 282.637 122.354 285.348 122.354C288.058 122.354 290.136 123.165 291.58 124.786C293.049 126.382 293.784 128.523 293.784 131.208ZM289.3 131.208C289.3 129.663 288.958 128.459 288.274 127.598C287.59 126.711 286.614 126.268 285.348 126.268C284.081 126.268 283.106 126.711 282.422 127.598C281.738 128.459 281.396 129.663 281.396 131.208V133.488C281.396 135.033 281.738 136.249 282.422 137.136C283.106 138.023 284.081 138.466 285.348 138.466C286.614 138.466 287.59 138.023 288.274 137.136C288.958 136.249 289.3 135.033 289.3 133.488V131.208ZM310.274 141.354C309.615 141.658 308.855 141.899 307.994 142.076C307.132 142.279 306.258 142.38 305.372 142.38C303.902 142.38 302.724 142.076 301.838 141.468C300.951 140.86 300.305 140.011 299.9 138.922C299.52 137.833 299.33 136.591 299.33 135.198V126.534H296.214V122.734H299.33V117.718H303.7V122.734H309.704V126.534H303.7V135.198C303.7 136.363 303.915 137.174 304.346 137.63C304.802 138.061 305.448 138.276 306.284 138.276C306.689 138.276 307.12 138.238 307.576 138.162C308.057 138.061 308.589 137.896 309.172 137.668L310.274 141.354ZM329.557 131.208V133.488C329.557 136.173 328.822 138.327 327.353 139.948C325.884 141.569 323.806 142.38 321.121 142.38C318.436 142.38 316.358 141.569 314.889 139.948C313.42 138.327 312.685 136.173 312.685 133.488V131.208C312.685 128.523 313.407 126.382 314.851 124.786C316.32 123.165 318.41 122.354 321.121 122.354C323.832 122.354 325.909 123.165 327.353 124.786C328.822 126.382 329.557 128.523 329.557 131.208ZM325.073 131.208C325.073 129.663 324.731 128.459 324.047 127.598C323.363 126.711 322.388 126.268 321.121 126.268C319.854 126.268 318.879 126.711 318.195 127.598C317.511 128.459 317.169 129.663 317.169 131.208V133.488C317.169 135.033 317.511 136.249 318.195 137.136C318.879 138.023 319.854 138.466 321.121 138.466C322.388 138.466 323.363 138.023 324.047 137.136C324.731 136.249 325.073 135.033 325.073 133.488V131.208ZM350.455 143.938C350.455 145.99 349.644 147.586 348.023 148.726C346.427 149.891 344.198 150.474 341.335 150.474C339.992 150.474 338.574 150.322 337.079 150.018C335.584 149.714 334.204 149.207 332.937 148.498L334.191 145.04C335.407 145.648 336.61 146.079 337.801 146.332C338.992 146.611 340.157 146.75 341.297 146.75C342.893 146.75 344.109 146.535 344.945 146.104C345.781 145.673 346.199 145.103 346.199 144.394C346.199 143.305 345.553 142.76 344.261 142.76H339.701C338.46 142.76 337.459 142.557 336.699 142.152C335.939 141.747 335.382 141.227 335.027 140.594C334.672 139.935 334.495 139.251 334.495 138.542C334.495 137.807 334.647 137.123 334.951 136.49C335.28 135.831 335.724 135.223 336.281 134.666C335.369 134.109 334.634 133.361 334.077 132.424C333.545 131.487 333.279 130.359 333.279 129.042C333.279 127.547 333.596 126.306 334.229 125.318C334.862 124.33 335.724 123.595 336.813 123.114C337.928 122.607 339.156 122.354 340.499 122.354H341.145C341.652 122.354 342.146 122.392 342.627 122.468C343.108 122.519 343.564 122.607 343.995 122.734H350.873V126.458L347.073 125.85C347.453 126.255 347.744 126.762 347.947 127.37C348.175 127.953 348.289 128.675 348.289 129.536C348.289 130.828 347.96 131.943 347.301 132.88C346.668 133.792 345.806 134.501 344.717 135.008C343.653 135.489 342.462 135.73 341.145 135.73H340.499C339.992 135.73 339.511 135.692 339.055 135.616C338.776 135.92 338.574 136.237 338.447 136.566C338.32 136.87 338.257 137.161 338.257 137.44C338.257 138.327 338.827 138.77 339.967 138.77H344.603C346.351 138.77 347.757 139.226 348.821 140.138C349.91 141.025 350.455 142.291 350.455 143.938ZM341.145 132.158C341.93 132.158 342.614 131.892 343.197 131.36C343.805 130.828 344.109 130.055 344.109 129.042C344.109 128.029 343.805 127.256 343.197 126.724C342.614 126.192 341.93 125.926 341.145 125.926H340.499C339.688 125.926 338.979 126.192 338.371 126.724C337.788 127.256 337.497 128.029 337.497 129.042C337.497 130.055 337.788 130.828 338.371 131.36C338.979 131.892 339.688 132.158 340.499 132.158H341.145ZM365.513 126.724C364.322 126.724 363.182 126.914 362.093 127.294C361.029 127.649 360.003 128.231 359.015 129.042V142H354.645V122.734H358.787V125.698C360.079 124.482 361.231 123.621 362.245 123.114C363.258 122.607 364.347 122.354 365.513 122.354V126.724ZM383.932 142.19C382.64 142.19 381.601 141.924 380.816 141.392C380.056 140.86 379.499 140.201 379.144 139.416C378.055 140.429 377.003 141.177 375.99 141.658C374.977 142.139 373.887 142.38 372.722 142.38C371.025 142.38 369.771 141.835 368.96 140.746C368.175 139.657 367.782 138.276 367.782 136.604C367.782 135.489 367.985 134.514 368.39 133.678C368.821 132.817 369.517 132.145 370.48 131.664C371.443 131.183 372.76 130.942 374.432 130.942C375.091 130.942 375.775 130.993 376.484 131.094C377.193 131.17 377.903 131.271 378.612 131.398V129.156C378.612 128.092 378.321 127.37 377.738 126.99C377.155 126.585 376.37 126.382 375.382 126.382C374.622 126.382 373.786 126.483 372.874 126.686C371.987 126.889 371.025 127.205 369.986 127.636L368.732 123.912C371.291 122.873 373.609 122.354 375.686 122.354C377.561 122.354 379.005 122.671 380.018 123.304C381.057 123.937 381.779 124.773 382.184 125.812C382.589 126.851 382.792 127.965 382.792 129.156V136.566C382.792 136.946 382.893 137.313 383.096 137.668C383.324 137.997 383.755 138.162 384.388 138.162H384.806V142.19H383.932ZM372 136.528C372 137.212 372.152 137.757 372.456 138.162C372.76 138.542 373.203 138.732 373.786 138.732C374.369 138.732 375.027 138.58 375.762 138.276C376.497 137.972 377.447 137.263 378.612 136.148V134.514C377.295 134.286 376.003 134.172 374.736 134.172C373.748 134.172 373.039 134.375 372.608 134.78C372.203 135.185 372 135.768 372 136.528ZM396.846 142.38C396.212 142.38 395.566 142.317 394.908 142.19C394.274 142.063 393.628 141.886 392.97 141.658V150.094H388.6V122.734H392.742V125.356C393.932 124.165 394.946 123.367 395.782 122.962C396.618 122.557 397.492 122.354 398.404 122.354C400.506 122.354 402.128 123.139 403.268 124.71C404.408 126.281 404.978 128.485 404.978 131.322V133.374C404.978 136.135 404.281 138.327 402.888 139.948C401.494 141.569 399.48 142.38 396.846 142.38ZM397.226 126.42C396.643 126.42 396.022 126.597 395.364 126.952C394.73 127.281 393.932 127.927 392.97 128.89V137.706C394.211 138.213 395.351 138.466 396.39 138.466C397.859 138.466 398.91 138.01 399.544 137.098C400.177 136.186 400.494 134.945 400.494 133.374V131.322C400.494 129.625 400.202 128.383 399.62 127.598C399.062 126.813 398.264 126.42 397.226 126.42ZM419.473 126.42C418.84 126.42 418.118 126.572 417.307 126.876C416.496 127.18 415.534 127.775 414.419 128.662V142H410.049V113.88H414.419V125.128C415.584 124.14 416.674 123.431 417.687 123C418.7 122.569 419.739 122.354 420.803 122.354C422.652 122.354 424.058 122.949 425.021 124.14C425.984 125.305 426.465 126.952 426.465 129.08V142H422.095V129.612C422.095 127.484 421.221 126.42 419.473 126.42ZM439.474 143.9C438.638 146.231 437.574 147.903 436.282 148.916C434.99 149.955 433.216 150.474 430.962 150.474V146.104C432.304 146.053 433.356 145.749 434.116 145.192C434.901 144.66 435.484 143.913 435.864 142.95L436.206 142.076L429.328 122.734H433.66L436.966 132.348L438.258 136.414L439.512 132.348L442.666 122.734H446.998L439.474 143.9Z" fill="black"/>
<defs>
<filter id="filter0_d_9_4" x="53.9062" y="21.9726" width="110.188" height="117.863" filterUnits="userSpaceOnUse" color-interpolation-filters="sRGB">
<feFlood flood-opacity="0" result="BackgroundImageFix"/>
<feColorMatrix in="SourceAlpha" type="matrix" values="0 0 0 0 0 0 0 0 0 0 0 0 0 0 0 0 0 0 127 0" result="hardAlpha"/>
<feOffset dy="4"/>
<feGaussianBlur stdDeviation="2"/>
<feComposite in2="hardAlpha" operator="out"/>
<feColorMatrix type="matrix" values="0 0 0 0 0 0 0 0 0 0 0 0 0 0 0 0 0 0 0.25 0"/>
<feBlend mode="normal" in2="BackgroundImageFix" result="effect1_dropShadow_9_4"/>
<feBlend mode="normal" in="SourceGraphic" in2="effect1_dropShadow_9_4" result="shape"/>
</filter>
</defs>
</svg>
